<svg height="512.629" viewBox="0 0 437.551 512.629" width="437.551" xmlns="http://www.w3.org/2000/svg"><circle cx="103.191" cy="179.225" fill="#2f2e41" r="30"/><circle cx="105.711" cy="184.721" fill="#a0616a" r="24.561"/><path d="M199.25 259.429a10.519 10.519 0 0 0-1.073 1.264l-49.562-1.751-5.669-10.631-17.162 6.458 8.206 19.8a8 8 0 0 0 8.263 4.889l56.085-6.158a10.5 10.5 0 1 0 .911-13.866z" fill="#a0616a"/><path d="M119.182 264.329a4.812 4.812 0 0 1-2.643-3.017l-6.9-23.17a13.377 13.377 0 1 1 24.208-11.391l13.372 20.235a4.817 4.817 0 0 1-1.98 7.02l-22.042 10.289a4.811 4.811 0 0 1-4.01.03z" fill="#ccc"/><path d="m167.997 499.556 10.768-5.862-17.485-44.322-15.892 8.65z" fill="#a0616a"/><path d="m163.337 497.535 21.205-11.544a15.386 15.386 0 0 1 20.87 6.157l.24.44-34.72 18.9z" fill="#2f2e41"/><path d="M49.51 499.604h12.26l5.832-47.288h-18.1z" fill="#a0616a"/><path d="M46.382 495.602h24.145a15.386 15.386 0 0 1 15.386 15.386v.5h-39.53z" fill="#2f2e41"/><path d="m125.691 289.729 4 48 44.62 133.856a4 4 0 0 1-2.53 5.06q-.168.055-.339.096l-13.675 3.256a4 4 0 0 1-4.5-2.091L96.224 364.749a2 2 0 0 0-3.739.47l-25.1 114.363a4 4 0 0 1-3.907 3.142H50.752a3.993 3.993 0 0 1-4-3.986v-.068c1.166-79.3-2.68-169.653 27.936-183.946l5-13z" fill="#3f3d56"/><path d="m78.251 285.129-5.154-31.177a30.877 30.877 0 0 1 9.77-28.006 30.361 30.361 0 0 1 28.33-6.925c.292.078.585.159.878.24a30.783 30.783 0 0 1 22.222 27.347c.984 13.54.1 33.184-9.678 49.87l-.19.324z" fill="#ccc"/><path d="M130.144 171.667a33.4 33.4 0 0 1-19.09 5.9 20.47 20.47 0 0 0 8.113 3.338 67.359 67.359 0 0 1-27.514.155 17.807 17.807 0 0 1-5.76-1.978 7.289 7.289 0 0 1-3.555-4.755c-.6-3.45 2.083-6.582 4.876-8.693a35.967 35.967 0 0 1 30.224-6.04c3.376.873 6.758 2.347 8.951 5.059s2.843 6.892.753 9.684zm-27.347-22.59c2.847-11.5-7.357-24.268-19.2-24.03-12.013.244-20.854 11.1-26.93 21.465s-12.116 22.117-23.27 26.58A24.029 24.029 0 0 1 .451 150.198c-1.5 12.593.577 26.219 8.7 35.96s23.233 14.13 34.1 7.584c6.2-3.74 10.17-10.237 13.438-16.7s6.178-13.28 11.131-18.564 12.612-8.792 19.506-6.57c2.736.884 5.191 2.6 8.018 3.127s6.386-.82 6.772-3.67z" fill="#2f2e41"/><path d="M43.597 357.52a10.743 10.743 0 0 1 2.743-16.243l21.305-95.5 21.613 8.87-27.737 91.082a10.8 10.8 0 0 1-17.924 11.79z" fill="#a0616a"/><path d="M59.206 259.479a4.812 4.812 0 0 1-.336-4l8.193-22.745a13.378 13.378 0 0 1 26.245 5.2l-1.245 24.222a4.817 4.817 0 0 1-5.76 4.475l-23.85-4.8a4.812 4.812 0 0 1-3.246-2.357zM300.282 3.659A5.982 5.982 0 0 0 294.814 0h-109.16a5.92 5.92 0 0 0-5.918 5.917v138.095a5.92 5.92 0 0 0 5.917 5.917h109.161a5.925 5.925 0 0 0 5.917-5.917V5.919a5.81 5.81 0 0 0-.449-2.26zm-.865 140.352a4.609 4.609 0 0 1-4.6 4.6H185.653a4.6 4.6 0 0 1-4.6-4.6V5.919a4.609 4.609 0 0 1 4.6-4.6h109.161a4.626 4.626 0 0 1 4.273 2.9 5.115 5.115 0 0 1 .173.519 4.559 4.559 0 0 1 .158 1.188z" fill="#ccc"/><path d="M277.5 32.606h-32.88a2.63 2.63 0 0 1 0-5.261h32.878a2.631 2.631 0 0 1 0 5.261zm0 13.81h-32.88a2.63 2.63 0 0 1 0-5.261h32.878a2.631 2.631 0 0 1 0 5.261zm-49.747 7.863H203.72a2.962 2.962 0 0 1-2.959-2.959V22.965a2.962 2.962 0 0 1 2.96-2.959h24.032a2.963 2.963 0 0 1 2.96 2.959V51.32a2.962 2.962 0 0 1-2.96 2.959zm49.517 20.413h-74.307a2.63 2.63 0 0 1 0-5.261h74.307a2.63 2.63 0 0 1 0 5.261zm0 13.814h-74.307a2.63 2.63 0 0 1 0-5.261h74.307a2.63 2.63 0 1 1 0 5.261zm0 13.805h-74.307a2.63 2.63 0 0 1 0-5.261h74.307a2.63 2.63 0 0 1 0 5.261zm0 13.813h-74.307a2.63 2.63 0 0 1 0-5.261h74.307a2.63 2.63 0 0 1 0 5.261zm0 13.806h-74.307a2.63 2.63 0 0 1 0-5.261h74.307a2.63 2.63 0 0 1 0 5.261z" fill="#ccc"/><path d="M366.21 85.198a7.6 7.6 0 0 0-6.95-4.65H220.535a7.524 7.524 0 0 0-7.52 7.52v175.5a7.524 7.524 0 0 0 7.52 7.52h138.73a7.53 7.53 0 0 0 7.52-7.52v-175.5a7.385 7.385 0 0 0-.57-2.87z" fill="#e6e6e6"/><path d="M354.914 261.234H225.27c-1.868-.002-3.331-2.046-3.331-4.653v-162.8c.002-2.609 1.465-4.652 3.33-4.652h129.645c1.87.002 3.332 2.046 3.332 4.653v162.8c-.002 2.608-1.466 4.652-3.332 4.652z" fill="#fff"/><path d="M366.21 85.198a7.6 7.6 0 0 0-6.95-4.65H220.535a7.524 7.524 0 0 0-7.52 7.52v175.5a7.524 7.524 0 0 0 7.52 7.52h138.73a7.53 7.53 0 0 0 7.52-7.52v-175.5a7.385 7.385 0 0 0-.57-2.87zm-1.1 178.37a5.857 5.857 0 0 1-5.85 5.85H220.535a5.851 5.851 0 0 1-5.85-5.848V88.069a5.858 5.858 0 0 1 5.85-5.85h138.73a5.879 5.879 0 0 1 5.43 3.68 6.482 6.482 0 0 1 .22.66 5.8 5.8 0 0 1 .2 1.51z" fill="#3f3d56"/><path d="M337.26 121.983h-41.786a3.343 3.343 0 0 1 0-6.686h41.786a3.343 3.343 0 1 1 0 6.686zm0 17.55h-41.786a3.343 3.343 0 0 1 0-6.686h41.786a3.343 3.343 0 1 1 0 6.686z" fill="#3f3d56"/><path d="M274.034 149.526h-30.537a3.765 3.765 0 0 1-3.76-3.761v-36.036a3.765 3.765 0 0 1 3.76-3.761h30.537a3.765 3.765 0 0 1 3.761 3.76v36.037a3.765 3.765 0 0 1-3.76 3.76z" fill="#2795fe"/><path d="M336.97 175.469h-94.436a3.343 3.343 0 0 1 0-6.686h94.436a3.343 3.343 0 1 1 0 6.686zm0 17.55h-94.436a3.343 3.343 0 0 1-.018-6.686h94.454a3.343 3.343 0 0 1 0 6.686zm0 17.55h-94.436a3.343 3.343 0 0 1 0-6.686h94.436a3.343 3.343 0 1 1 .019 6.686zm0 17.55h-94.436a3.343 3.343 0 1 1-.018-6.686h94.454a3.343 3.343 0 0 1 0 6.686zm0 17.55h-94.436a3.343 3.343 0 1 1-.018-6.686h94.454a3.343 3.343 0 0 1 0 6.686z" fill="#e6e6e6"/><circle cx="383.551" cy="67.629" fill="#2795fe" r="54"/><path d="M392.056 69.42V39.629h-15.342v29.79h-7.163l7.416 12.846 7.418 12.847 7.418-12.847 7.417-12.847z" fill="#fff"/><path d="M403.625 512.629h-381a1 1 0 1 1 0-2h381a1 1 0 0 1 0 2z" fill="#e6e6e6"/><path d="M371.074 503.736c-9.6 6.915-22.039 7.262-34.063 6.413a247.287 247.287 0 0 1-5-.407h-.033a6.78 6.78 0 0 0-.235-.02l-1.02-.1.08.152.25.472-.27-.471-.082-.142c-3.115-5.421-6.2-11.04-6.992-17.23-.815-6.425 1.475-13.7 7.13-16.857a11.406 11.406 0 0 1 2.34-.981q.507-.15 1.028-.26a12.23 12.23 0 0 1 14.223 15.9c4.794-4.916 3.9-12.89 2.246-19.555s-3.663-14.081-.293-20.067a13.233 13.233 0 0 1 8.865-6.232c.113-.024.227-.05.34-.07a17.848 17.848 0 0 1 12.823 2.247c7.07 4.455 10.7 12.9 11.878 21.174 1.9 13.313-2.302 28.173-13.215 36.034z" fill="#f2f2f2"/></svg>