<svg data-name="Layer 1" xmlns="http://www.w3.org/2000/svg" xmlns:xlink="http://www.w3.org/1999/xlink" viewBox="0 0 298.08 217.6"><defs><linearGradient id="a" x1="217.44" y1="62.32" x2="284.9" y2="179.16" gradientUnits="userSpaceOnUse"><stop offset="0" stop-opacity="0"/><stop offset=".13" stop-opacity=".32"/><stop offset="1"/></linearGradient><linearGradient id="b" x1="88.99" y1="21.73" x2="168.02" y2="158.61" xlink:href="#a"/><linearGradient id="c" x1="144.62" y1="-15.26" x2="205.7" y2="90.52" xlink:href="#a"/><linearGradient id="d" x1="211.44" y1="1.31" x2="248.59" y2="65.64" xlink:href="#a"/><linearGradient id="e" x1="138.98" y1="86.99" x2="211.16" y2="86.99" xlink:href="#a"/><linearGradient id="f" x1="21.81" y1="31.32" x2="109.69" y2="183.53" xlink:href="#a"/></defs><path style="fill:none;stroke-miterlimit:10;stroke:url(#a)" d="m297.63 48.03-78.94 167.62-8.38-119.44 27.87-45.36"/><path d="m2.58 106.7 132.38 58.39-95.55-3.41-36.85-55M.5 104.95 39 162.39l99.83 3.56-138.34-61Z"/><path style="fill:none;stroke-miterlimit:10;stroke:url(#b)" d="m76.56 29.05 29.2 104.26 52.36 30.41 43.01-30.31-10.58-16.61-54.93-93.96"/><path style="fill:none;stroke-miterlimit:10;stroke:url(#c)" d="m195.73 10.03-17.75 94.94-38.4-65.98L117.78.24"/><path style="fill:none;stroke-miterlimit:10;stroke:url(#d)" d="m184.69 17.15-6.71 28.43 29.37 6.88 2.96 34.57 76.38-58.91"/><path d="m206.78 90.3 17 34.16-5.76 89.86-65-42.59 53.74-81.43m.09-1.5-54.89 83.15 66.7 43.71 5.86-91.35-17.69-35.51Z"/><path style="fill:none;stroke-miterlimit:10;stroke:url(#e)" d="m139.58 38.99 64.56 16.11 6.47 79.96-58.62-9.33-12.41-86.74z"/><path style="fill:none;stroke-miterlimit:10;stroke:url(#f)" d="m100.93 59.38 37.93 106.59-16.41 4.28L.52 103.22 4.5 41.63"/><path d="m280.41 88.81-27.45 95.81-27.31-14.06 54.76-81.75m2-4.39-57.89 86.42 28.87 14.87 29-101.29Z"/><path style="fill:#009de0;opacity:.697575" class="velocity-animating" d="m139.58 38.99 64 15.91 6.41 78.96-58.11-9.22-12.3-85.65z"/></svg>