<svg id="Layer_1" data-name="Layer 1" xmlns="http://www.w3.org/2000/svg" xmlns:xlink="http://www.w3.org/1999/xlink" viewBox="0 0 688.49 499.53"><defs><linearGradient id="linear-gradient" x1="503.98" y1="144.12" x2="658.24" y2="411.31" gradientUnits="userSpaceOnUse"><stop offset="0" stop-opacity="0"/><stop offset=".13" stop-opacity=".32"/><stop offset="1"/></linearGradient><linearGradient id="linear-gradient-2" x1="205.21" y1="50.05" x2="387.61" y2="365.97" xlink:href="#linear-gradient"/><linearGradient id="linear-gradient-3" x1="334.06" y1="-35.91" x2="474.13" y2="206.71" xlink:href="#linear-gradient"/><linearGradient id="linear-gradient-4" x1="489.66" y1="2.8" x2="574.71" y2="150.12" xlink:href="#linear-gradient"/><linearGradient id="linear-gradient-5" x1="49.82" y1="72.49" x2="252.47" y2="423.47" xlink:href="#linear-gradient"/><style>.cls-2{fill:#010101}</style></defs><path style="stroke:url(#linear-gradient);fill:none;stroke-miterlimit:10;stroke-width:.25px" d="m688.38 110.75-182.86 388.3-19.42-276.69 64.57-105.07"/><path class="cls-2" d="m14.86 257.34 318.48 140.44-229.83-8.2-88.65-132.24m-.69-.58 89.19 133.06 231.26 8.25L14.17 256.76Z" transform="translate(-14.04 -14.11)"/><path style="stroke:url(#linear-gradient-2);fill:none;stroke-miterlimit:10;stroke-width:.25px" d="m176.27 66.8 67.65 241.5 121.29 70.45 99.63-70.21-24.51-38.48L313.09 52.4"/><path style="stroke:url(#linear-gradient-3);fill:none;stroke-miterlimit:10;stroke-width:.25px" d="m452.34 22.72-41.13 219.93-88.96-152.82L271.76.06"/><path style="stroke:url(#linear-gradient-4);fill:none;stroke-miterlimit:10;stroke-width:.25px" d="m426.76 39.22-15.55 65.86 68.05 15.94 6.84 80.08L663.04 64.64"/><path class="cls-2" d="m492.14 219.8 40.75 81.8-13.54 211.11L365.4 411.84l126.74-192m0-.5L365.05 411.91l154.52 101.25 13.57-211.61-41-82.25Z" transform="translate(-14.04 -14.11)"/><path class="cls-2" d="m336.6 104.27 149 37.17 14.95 184.73-135.27-21.54-28.68-200.36m-.3-.33 28.76 200.91 135.78 21.62-15-185.23-149.54-37.3Z" transform="translate(-14.04 -14.11)"/><path style="stroke:url(#linear-gradient-5);fill:none;stroke-miterlimit:10;stroke-width:.25px" d="m232.73 137.06 87.85 246.91-37.99 9.91L.13 238.61 9.35 95.94"/><path class="cls-2" d="m666.56 210.62-66.7 232.81-66.36-34.18 133.06-198.63m.68-1.46-134.1 200.19L600 443.78l67.22-234.63Z" transform="translate(-14.04 -14.11)"/></svg>