<svg xmlns="http://www.w3.org/2000/svg" data-name="Layer 1" width="522.708" height="519.891" viewBox="0 0 522.708 519.891"><path d="M347.674 519.89H28.53A28.563 28.563 0 0 1 0 491.36V28.53A28.563 28.563 0 0 1 28.531 0h319.143a28.563 28.563 0 0 1 28.53 28.531V491.36a28.563 28.563 0 0 1-28.53 28.53Z" fill="#3f3d56"/><path d="M348.235 501.687H27.97a8.805 8.805 0 0 1-8.795-8.795V26.998a8.805 8.805 0 0 1 8.795-8.795h320.266a8.805 8.805 0 0 1 8.795 8.795v465.894a8.805 8.805 0 0 1-8.795 8.795Z" fill="#fff"/><circle cx="186.889" cy="8.738" r="2.427" fill="#fff"/><path d="m273.53 215.233-10.602-31.754-.179-.553 44.65-28.203 2.373 3.199 12.435 16.745-4.546 13.543-11.748 34.99-.515 1.538 21.757 16.176a57.913 57.913 0 0 1 2.16 4.373c6.496 14.8-3.118 14.129-3.118 14.129l-44.25-18.967Z" fill="#ffb7b7"/><path d="m296.956 221.144-1.951-5.846-9.574-28.695-1.994-5.982-1.675-5.006 21.832-13.794 22.817-14.409 14.809 19.944-4.488 13.372-2.182 6.497-3.373 10.05-6.766 20.152 21.757 16.176a42.206 42.206 0 0 1 3.872 9.15 14.066 14.066 0 0 1 .532 4.097 5.017 5.017 0 0 1-5.362 5.255l-44.25-18.967Z" fill="#ffb7b7"/><path opacity=".15" style="isolation:isolate" d="m294.88 222.439-2.568-27.069 12.796-6.938.837 1.545-11.775 6.384 2.381 25.094 26.161 17.916-.992 1.449-26.84-18.381z"/><path transform="rotate(-53.541 316.43 662.652)" opacity=".15" style="isolation:isolate" d="M673.238 405.634h1.756v32.825h-1.756z"/><path fill="#fff" d="m321.218 248.065-132.815-93.367-134.171 92.497 132.17 55.812 134.816-54.942z"/><path d="m226.128 168.815 44.723-43.727 79.987-5.404 99.427 94.944 72.443 39.645-20.409 60.015-87.437-41.505c-17.802-1.308-29.256-7.215-36.5-13.427a44.098 44.098 0 0 1-6.695-7.17 32.236 32.236 0 0 1-4.951-9.243l-35.538-45.668-7.327-9.424-4.746-6.098-15.511-19.932-1.117-1.433-26.352-.697-13.714 18.005-9.634 12.635a21.417 21.417 0 0 1-4.597 12.212c-8.639 10.508-26.154 8.456-26.154 8.456Z" fill="#ffb7b7"/><path d="M54.744 247.11h.096l54.853 23.422 75.05 32.047a2.42 2.42 0 0 0 1.855.01l77.43-32.124 56.2-23.317.087-.039h.095a3.348 3.348 0 0 1 3.345 3.345v145.257a3.348 3.348 0 0 1-3.345 3.344H54.744a3.348 3.348 0 0 1-3.345-3.344V250.454a3.348 3.348 0 0 1 3.345-3.345Z" fill="#fff"/><path d="M54.505 248.065a.476.476 0 0 0 .273-.086l132.145-92.029a2.396 2.396 0 0 1 2.737.005l131.193 92.023a.478.478 0 0 0 .549-.782l-131.193-92.024a3.355 3.355 0 0 0-3.832-.006L54.232 247.195a.478.478 0 0 0 .273.87Z" fill="#3f3d56"/><path fill="#e6e6e6" d="m313.356 251.327-125.194-92.784-126.143 99.386 119.693 70.956 64.983-14.812 66.661-62.746z"/><path d="M241.21 372.711h61.848a2.89 2.89 0 0 0 .009-5.779H241.21a2.89 2.89 0 0 0-.009 5.78Zm39.658-12.423h22.19a2.89 2.89 0 0 0 .009-5.779h-22.199a2.89 2.89 0 0 0-.008 5.78Z" fill="#2795ff"/><path d="M186.402 303.007a3.614 3.614 0 0 0 1.37-.269l77.212-32.037V170.42a3.349 3.349 0 0 0-3.345-3.345H113.515a3.349 3.349 0 0 0-3.344 3.345v100.35l.145.062 74.673 31.89a3.64 3.64 0 0 0 1.413.284Z" fill="#fff"/><path d="m184.895 302.942-74.963-32.013v-100.51a3.588 3.588 0 0 1 3.583-3.583H261.64a3.588 3.588 0 0 1 3.583 3.584v100.44l-77.358 32.1a3.885 3.885 0 0 1-2.968-.018Zm79.372-132.522a2.631 2.631 0 0 0-2.628-2.628H113.515a2.631 2.631 0 0 0-2.628 2.628v99.878l74.382 31.764a2.923 2.923 0 0 0 2.23.014l76.768-31.854Z" fill="#3f3d56"/><path d="M52.116 250.454v145.257a3.348 3.348 0 0 0 3.345 3.344h265.666a3.348 3.348 0 0 0 3.345-3.344V250.454a3.348 3.348 0 0 0-3.345-3.345h-.096l-.085.039-56.201 23.317-77.43 32.124a2.42 2.42 0 0 1-1.855-.01l-75.05-32.047-54.854-23.423h-.095a3.348 3.348 0 0 0-3.345 3.345Zm.956 0a2.397 2.397 0 0 1 2.293-2.389l55.045 23.504 74.673 31.89a3.402 3.402 0 0 0 2.6.014l77.062-31.976 56.473-23.432a2.394 2.394 0 0 1 2.298 2.39V395.71a2.39 2.39 0 0 1-2.389 2.389H55.461a2.39 2.39 0 0 1-2.39-2.39Z" fill="#3f3d56"/><path d="M126.482 204.56h52.56a3.823 3.823 0 0 0 0-7.645h-52.56a3.823 3.823 0 0 0 0 7.645Zm.032-16.245h25.324a3.823 3.823 0 0 0 0-7.645h-25.324a3.823 3.823 0 0 0 0 7.645Z" fill="#2795ff"/><path d="M148.266 242.786h80.274a3.823 3.823 0 1 0 0-7.645h-80.274a3.823 3.823 0 0 0 0 7.645Zm0 17.679h80.274a3.823 3.823 0 0 0 0-7.645h-80.274a3.823 3.823 0 0 0 0 7.645Z" fill="#ccc"/><path d="m673.196 377.28 15.944-.922 63.703 78.509-22.506-3.443-13.33-2.014a44.098 44.098 0 0 1-6.694-7.17l-14.811-4.397-6.816-5.036c.428 1.637-15.49-55.527-15.49-55.527Z" transform="translate(-338.646 -190.055)" opacity=".1" style="isolation:isolate"/><path d="M232.637 184.727a11.249 11.249 0 0 1 12.778-9.396l16.996 2.364 21.026 2.926 16.25 2.259 19.418-1.127 17.626-1.025 10.414-.601 69.242 85.335-59.531-17.673-6.816-5.036-29.843-22.042s-9.778-1.802-25.192-5.413c-2.293-.544-28.241-7.056-40.43-10.597a75.182 75.182 0 0 1-6.395-2.158c-13.59-5.349-16.308-12.207-15.543-17.816Z" fill="#ffb7b7"/><path d="M581.017 385.442c.06-.007 6.127-.762 8.716-5.205 1.745-2.993 1.57-7.023-.52-11.978l1.617-.683c2.32 5.499 2.459 10.06.414 13.557-3.042 5.203-9.743 6.022-10.027 6.055Z" transform="translate(-338.646 -190.055)" opacity=".15" style="isolation:isolate"/><path opacity=".15" style="isolation:isolate" d="m303.71 183.525-.004-1.756 31.232-.05-32.926-20.586.931-1.49 38.103 23.822-37.336.06z"/></svg>