<svg xmlns="http://www.w3.org/2000/svg" xmlns:xlink="http://www.w3.org/1999/xlink" viewBox="0 0 144 144"><defs><linearGradient id="linear-gradient" x1="34.11" y1="46.61" x2="114.45" y2="99.74" gradientUnits="userSpaceOnUse"><stop offset="0" stop-color="#f3f6fa"/><stop offset=".19" stop-color="#eaeff6"/><stop offset=".48" stop-color="#d2ddea"/><stop offset=".86" stop-color="#abc0d7"/><stop offset="1" stop-color="#9bb4cf"/></linearGradient><linearGradient id="linear-gradient-2" x1="72.13" y1="64.35" x2="72.13" y2="116.1" xlink:href="#linear-gradient"/><linearGradient id="linear-gradient-3" x1="74.81" y1="82.86" x2="82.74" y2="115.66" xlink:href="#linear-gradient"/><linearGradient id="linear-gradient-4" x1="92.42" y1="85.28" x2="111.93" y2="98.1" xlink:href="#linear-gradient"/><linearGradient id="linear-gradient-5" x1="72.13" y1="83.64" x2="72.13" y2="63.17" gradientTransform="rotate(-90 72.13 69.1)" xlink:href="#linear-gradient"/><linearGradient id="White_Black" x1="39.87" y1="69.1" x2="104.38" y2="69.1" gradientUnits="userSpaceOnUse"><stop offset="0" stop-color="#fff"/><stop offset="1"/></linearGradient><linearGradient id="linear-gradient-6" x1="72.13" y1="60.97" x2="72.13" y2="73.39" gradientUnits="userSpaceOnUse"><stop offset="0" stop-color="#2adeff"/><stop offset=".06" stop-color="#29cfef"/><stop offset=".31" stop-color="#2291ac"/><stop offset=".54" stop-color="#1d5f77"/><stop offset=".74" stop-color="#1a3c50"/><stop offset=".9" stop-color="#182639"/><stop offset="1" stop-color="#171e30"/></linearGradient><linearGradient id="linear-gradient-7" x1="72.18" y1="58.11" x2="72.18" y2="87.55" gradientUnits="userSpaceOnUse"><stop offset="0" stop-color="#2adeff"/><stop offset=".1" stop-color="#29d6f6"/><stop offset=".26" stop-color="#27bfde"/><stop offset=".46" stop-color="#239bb7"/><stop offset=".7" stop-color="#1e6980"/><stop offset=".96" stop-color="#18293c"/><stop offset="1" stop-color="#171e30"/></linearGradient><linearGradient id="linear-gradient-8" x1="114" y1="41.92" x2="128.63" y2="87.66" xlink:href="#linear-gradient"/><linearGradient id="linear-gradient-9" x1="125.27" y1="67.78" x2="117.6" y2="87.17" xlink:href="#linear-gradient"/><linearGradient id="linear-gradient-10" x1="124.16" y1="67.35" x2="116.5" y2="86.74" xlink:href="#linear-gradient"/><linearGradient id="linear-gradient-11" x1="104.7" y1="65.64" x2="131.27" y2="72.74" xlink:href="#linear-gradient"/><linearGradient id="linear-gradient-13" x1="127.84" y1="71.82" x2="133.8" y2="73.67" xlink:href="#linear-gradient"/><linearGradient id="linear-gradient-14" x1="14.5" y1="56.95" x2="36.02" y2="104.35" xlink:href="#linear-gradient"/><linearGradient id="linear-gradient-15" x1="-4152.98" y1="67.78" x2="-4160.65" y2="87.17" gradientTransform="matrix(-1 0 0 1 -4133.32 0)" xlink:href="#linear-gradient"/><linearGradient id="linear-gradient-16" x1="-4173.54" y1="65.64" x2="-4146.99" y2="72.74" gradientTransform="matrix(-1 0 0 1 -4133.32 0)" xlink:href="#linear-gradient"/><linearGradient id="linear-gradient-18" x1="-4150.41" y1="71.82" x2="-4144.45" y2="73.66" gradientTransform="matrix(-1 0 0 1 -4133.32 0)" xlink:href="#linear-gradient"/><radialGradient id="radial-gradient" cx="36444.72" cy="-16741" r="90.69" gradientTransform="matrix(.16 0 0 .3 -5810.38 5142.2)" gradientUnits="userSpaceOnUse"><stop offset=".15" stop-color="#fff"/><stop offset=".2" stop-color="#dadada"/><stop offset=".28" stop-color="#a8a8a8"/><stop offset=".37" stop-color="#7b7b7b"/><stop offset=".46" stop-color="#555"/><stop offset=".55" stop-color="#363636"/><stop offset=".65" stop-color="#1e1e1e"/><stop offset=".75" stop-color="#0d0d0d"/><stop offset=".86" stop-color="#030303"/><stop offset="1"/></radialGradient><radialGradient id="radial-gradient-2" cx="35747.02" cy="-16743.32" r="90.69" xlink:href="#radial-gradient"/><radialGradient id="radial-gradient-3" cx="31888.66" cy="-21792.68" r="90.69" gradientTransform="matrix(.26 0 0 .24 -8129.44 5448.64)" xlink:href="#radial-gradient"/><radialGradient id="radial-gradient-4" cx="31750.36" cy="-21793.53" r="90.69" gradientTransform="matrix(.26 0 0 .24 -8129.44 5448.64)" xlink:href="#radial-gradient"/><mask id="mask" x="114.28" y="44.47" width="29.71" height="54.54" maskUnits="userSpaceOnUse"><path d="M144 71.65c.08 15.06-6.5 27.35-14.7 27.35s-14.93-12.12-15-27.18 6.46-27.3 14.7-27.35 14.9 12.12 15 27.18Z" style="fill:url(#radial-gradient)"/></mask><mask id="mask-2" x="-.01" y="44.47" width="29.71" height="54.54" maskUnits="userSpaceOnUse"><path d="M29.7 71.65C29.79 86.71 23.21 99 15 99S.08 86.89 0 71.83s6.48-27.31 14.68-27.36S29.61 56.59 29.7 71.65Z" style="fill:url(#radial-gradient-2)"/></mask><mask id="mask-3" x="67.19" y="45.95" width="46.95" height="50.87" maskUnits="userSpaceOnUse"><path d="M114.13 68c.08 12.26-10.37 22.25-23.34 22.33s-23.53-9.79-23.6-22S77.56 46 90.53 46s23.53 9.75 23.6 22Z" style="fill:url(#radial-gradient-3)"/></mask><mask id="mask-4" x="31.39" y="45.95" width="46.95" height="50.87" maskUnits="userSpaceOnUse"><path d="M78.34 68C78.42 80.26 68 90.25 55 90.33s-23.53-9.79-23.61-22S41.77 46 54.74 46s23.53 9.75 23.6 22Z" style="fill:url(#radial-gradient-4)"/></mask><clipPath id="clip-path"><rect x="60.24" y="37.7" width="23.78" height="62.81" rx="11.57" transform="rotate(90 72.13 69.1)" style="fill:none"/></clipPath><style>.cls-29,.cls-30{opacity:.5}.cls-18{fill:#fff}.cls-29{fill:#00a99d}</style></defs><g style="isolation:isolate"><g id="Layer_1" data-name="Layer 1"><path d="M125.89 71.89c0 27.48-24.07 41.13-53.76 41.13S18.36 98.57 18.36 71.89s24.08-41.14 53.77-41.14 53.76 13.66 53.76 41.14Z" style="fill:url(#linear-gradient)"/><path d="M72.13 30.75c-29.69 0-53.77 14.46-53.77 41.14S42.44 113 72.13 113s53.76-13.65 53.76-41.13-24.07-41.12-53.76-41.12Zm0 71.62c-22.39 0-40.54-12.49-40.54-32.61s18.15-32.61 40.54-32.61S112.66 49 112.66 69.76s-18.15 32.61-40.53 32.61Z" style="fill:url(#linear-gradient-2);opacity:.5;mix-blend-mode:multiply"/><path d="M72.13 30.75c-23.7 0-43.81 11.57-51 27.18 1.69-2.58 3.72-8.34 6.09-10.16l1.43-1.72c3.48-3 7.55-6.59 11.74-8.79C45.34 35 50.51 33 55.94 32.44A67.12 67.12 0 0 1 74.12 32a71.1 71.1 0 0 1 36.4 15.69c5.4 4.49 9.31 14.64 8.34 21.59-.68 4.84-3.62 9.11-7.12 12.52-29.61 28.91-55 36.19-86.1 9.41-2.06-1.78-3.92-10.44-5.23-12.83a3.42 3.42 0 0 1-.26-.59c-.36-1.09-.66-2.48-.89-3.37s-.66-2.25-.88-3.38v.82C18.36 98.57 42.44 113 72.13 113s53.76-13.65 53.76-41.13-24.07-41.12-53.76-41.12Z" style="fill:url(#linear-gradient-3);opacity:.5;mix-blend-mode:multiply"/><path d="M93.3 34.25c2.4.47 6.44 4.11 8.37 5.66 2.9 2.32 7.15 8.26 9.16 11.4 2.89 4.48 4 13.44 3.8 18.76-.18 5.56-4.92 14.53-8.46 18.16a44.05 44.05 0 0 1-12.51 8.53c-18.81 9.09-48.41 7.82-61.31 3.86.86 1.18 5.32 4 7.8 4.9 3 1.1 6.13 3.5 9.27 4.12a112.12 112.12 0 0 0 21.49 1.82c29 0 52.54-13.5 52.54-40.35 0-19.45-12.33-33.35-30.15-36.86Z" style="fill:url(#linear-gradient-4);opacity:.5;mix-blend-mode:multiply"/><path d="M60.78 55.33c.8 3.44-3.2 7.31-8.93 8.65s-11-.36-11.82-3.8 3.19-7.31 8.92-8.65 11.05.37 11.83 3.8Z" style="opacity:.8;fill:#fff"/><rect x="58.53" y="35.99" width="27.19" height="66.22" rx="13.27" transform="rotate(90 72.13 69.1)" style="fill:url(#linear-gradient-5)"/><rect x="39.87" y="56.36" width="64.51" height="25.49" rx="12.42" style="fill:#2c2a46"/><rect x="39.87" y="56.36" width="64.51" height="25.49" rx="12.42" style="fill:url(#White_Black);mix-blend-mode:multiply"/><path d="M62 68.87a6.77 6.77 0 1 1-6.8-6.77 6.77 6.77 0 0 1 6.8 6.77Zm34.71 0A6.77 6.77 0 1 1 90 62.1a6.76 6.76 0 0 1 6.71 6.77Z" style="fill:#00a99d"/><path d="M52.16 72.17a76.49 76.49 0 0 1 21.7-2.48 100.46 100.46 0 0 1 28.42 3.92l.4.16a11.42 11.42 0 0 0 .85-4.34v-.65a11.57 11.57 0 0 0-3-7.78A44.07 44.07 0 0 1 89 64.44a57.61 57.61 0 0 1-16.3 1.85 69.46 69.46 0 0 1-28.59-5.7 11.55 11.55 0 0 0-3.41 8.19v.65a11.39 11.39 0 0 0 1.3 5.26 58.49 58.49 0 0 1 10.16-2.52Z" style="fill:url(#linear-gradient-6);mix-blend-mode:screen;opacity:.5"/><path class="cls-18" d="M78.69 57.21c-2.75.1-5.5.14-8.24.21l-8.24.12c-2.75 0-5.49.05-8.24.07a19.55 19.55 0 0 0-4 .27 10.81 10.81 0 0 0-3.64 1.51 11.33 11.33 0 0 0-4.72 6.18l-.26 1-.15 1a16.62 16.62 0 0 0-.09 2 11.39 11.39 0 0 0 5.81 9.91 11.14 11.14 0 0 0 3.82 1.33 37 37 0 0 0 4.09.23 29.82 29.82 0 0 1-4.12 0 11.5 11.5 0 0 1-4-1.19 11.92 11.92 0 0 1-5.52-6.12 11.5 11.5 0 0 1-.84-4.14 13 13 0 0 1 .48-4.19 12.09 12.09 0 0 1 5-6.67 11.87 11.87 0 0 1 3.93-1.61 12.51 12.51 0 0 1 2.11-.24h2.07c2.75 0 5.49 0 8.24.07l8.24.12c2.77 0 5.52.05 8.27.14Z" style="mix-blend-mode:screen;opacity:.5"/><g style="opacity:.6;mix-blend-mode:multiply"><path d="M102.68 67.93a10.88 10.88 0 0 1-3.06 8.7 11.18 11.18 0 0 1-4.06 2.62 12.14 12.14 0 0 1-1.17.36c-.4.1-.81.15-1.21.23l-1.18.09h-1.17c-3.11.08-6.22.1-9.32.14H62.85c-3.11 0-6.22-.07-9.33-.15h-1.16l-1.23-.09c-.41-.08-.81-.13-1.21-.23a12.33 12.33 0 0 1-1.18-.36 11.18 11.18 0 0 1-4.06-2.62 10.87 10.87 0 0 1-3.05-8.7 12.15 12.15 0 0 0 1 4.48A10.2 10.2 0 0 0 45.2 76a10.57 10.57 0 0 0 3.85 2.16c.34.13.72.17 1.07.27s.73.1 1.09.15h2.26c3.11-.08 6.22-.09 9.33-.14h18.66c3.1 0 6.21.07 9.32.15h2.26c.36-.06.73-.09 1.09-.16s.73-.14 1.07-.27A10.42 10.42 0 0 0 99.05 76a10.11 10.11 0 0 0 2.67-3.62 12.35 12.35 0 0 0 .96-4.45Z" style="fill:#002d73"/></g><path d="M95.93 73.86c-3.57 2.27-8.56 4.75-13 4.75-3.41 0-5.79-1.38-6.74-4.62-1.07-3.68 1.83-8.13 3.73-11.08a33 33 0 0 1 4.76-5.7H56.45a10.17 10.17 0 0 1-1.8 5.54c-2.54 4-8 8.36-12.88 8.36a6.53 6.53 0 0 1-.93-.07 11.52 11.52 0 0 0 3.81 7.06 38.19 38.19 0 0 1 2-3.31 34.37 34.37 0 0 1 10-9.54c3-1.87 7.06-3.92 10.7-3.92 2.82 0 4.78 1.14 5.56 3.81.89 3-1.51 6.73-3.07 9.17A30.63 30.63 0 0 1 63.7 81H92a11.58 11.58 0 0 0 11.57-11.56v-1.58a47.09 47.09 0 0 1-7.64 6Z" style="opacity:.1;fill:url(#linear-gradient-7);mix-blend-mode:screen"/><path class="cls-18" d="M60.78 55.33c.8 3.44-3.2 7.31-8.93 8.65s-11-.36-11.82-3.8 3.19-7.31 8.92-8.65 11.05.37 11.83 3.8Z" style="clip-path:url(#clip-path)"/><path d="M128.08 87.9s-4.89 2-7.05 2-3.92-8.07-3.92-18 1.76-18 3.92-18c1.11 0 6.94 2 6.94 2Z" style="fill:url(#linear-gradient-8)"/><path d="M123.36 80.16c-1.49-2.67-1.93-6.08-2.28-9.09a119.11 119.11 0 0 1-.76-13.21 5.07 5.07 0 0 1 1.91-3.8 6 6 0 0 0-1.2-.23c-2.16 0-3.92 8.07-3.92 18s1.76 18 3.92 18 7.05-2 7.05-2V85a13.68 13.68 0 0 1-4.72-4.84Z" style="fill:url(#linear-gradient-9);opacity:.5;mix-blend-mode:multiply"/><path d="M122.13 85.53c-2.11-3-3.07-7-3.56-10.58a42 42 0 0 1 1.83-17.9 4.6 4.6 0 0 1 .37-1.12c.2-.58.4-1.15.62-1.7 0-.12.1-.22.15-.33a3.17 3.17 0 0 0-.51-.07c-2.16 0-3.92 8.07-3.92 18s1.76 18 3.92 18a16 16 0 0 0 4.07-.9 21 21 0 0 1-2.97-3.4Z" style="fill:url(#linear-gradient-10);opacity:.5;mix-blend-mode:multiply"/><path d="M131.45 71.85c0 8.87-1.57 16.06-3.5 16.06s-3.49-7.19-3.49-16.06S126 55.79 128 55.79s3.45 7.21 3.45 16.06Z" style="fill:url(#linear-gradient-11)"/><path d="M131.45 71.85c0 8.87-1.57 16.06-3.5 16.06s-3.49-7.19-3.49-16.06S126 55.79 128 55.79s3.45 7.21 3.45 16.06Z" style="fill:url(#linear-gradient-11);opacity:.5;mix-blend-mode:multiply"/><path d="M128 55.8a4.56 4.56 0 0 1 .77 2.41c.06 3.41.75 6.78.72 10.19a49.88 49.88 0 0 1-1.07 8A35.26 35.26 0 0 1 126 85c.56 1.82 1.25 2.89 2 2.89 1.93 0 3.5-7.19 3.5-16.06S129.92 56 128 55.8Z" style="fill:url(#linear-gradient-13);opacity:.5;mix-blend-mode:multiply"/><ellipse class="cls-29" cx="128.81" cy="71.85" rx="2.55" ry="14.17"/><g class="cls-30"><path class="cls-18" d="M128 87.91a1.26 1.26 0 0 1-.91-.5 4 4 0 0 1-.57-.9 12 12 0 0 1-.77-2 31.33 31.33 0 0 1-.87-4.18 62.43 62.43 0 0 1 0-17 30.86 30.86 0 0 1 .87-4.17 12.14 12.14 0 0 1 .77-2 4.27 4.27 0 0 1 .57-.9 1.26 1.26 0 0 1 .91-.5 1.27 1.27 0 0 0-.86.54 4.56 4.56 0 0 0-.52.91 12.7 12.7 0 0 0-.67 2 32.68 32.68 0 0 0-.75 4.16 68.17 68.17 0 0 0-.47 8.45 68.17 68.17 0 0 0 .47 8.45 32.36 32.36 0 0 0 .75 4.16 12.7 12.7 0 0 0 .67 2 4.56 4.56 0 0 0 .52.91 1.23 1.23 0 0 0 .86.57Z"/></g><path d="M16.85 87.9s4.89 2 7 2 3.91-8.07 3.91-18-1.75-18-3.91-18c-1.12 0-6.94 2-6.94 2Z" style="fill:url(#linear-gradient-14)"/><path d="M21.57 80.16c1.49-2.67 1.93-6.08 2.28-9.09a119.11 119.11 0 0 0 .76-13.21 5.1 5.1 0 0 0-1.91-3.8 6 6 0 0 1 1.2-.23c2.16 0 3.91 8.07 3.91 18s-1.75 18-3.91 18-7-2-7-2V85a13.68 13.68 0 0 0 4.67-4.84Z" style="fill:url(#linear-gradient-15);opacity:.5;mix-blend-mode:multiply"/><path d="M13.48 71.85c0 8.87 1.57 16.06 3.5 16.06s3.48-7.19 3.48-16.06S18.9 55.79 17 55.79 13.48 63 13.48 71.85Z" style="fill:url(#linear-gradient-16)"/><path d="M13.48 71.85c0 8.87 1.57 16.06 3.5 16.06s3.48-7.19 3.48-16.06S18.9 55.79 17 55.79 13.48 63 13.48 71.85Z" style="fill:url(#linear-gradient-16);mix-blend-mode:screen;opacity:.5"/><path d="M16.89 55.8a4.64 4.64 0 0 0-.76 2.41c-.05 3.41-.75 6.78-.72 10.19a49.88 49.88 0 0 0 1.07 8A35.71 35.71 0 0 0 19 85c-.56 1.82-1.25 2.89-2 2.89-1.93 0-3.5-7.19-3.5-16.06S15 56 16.89 55.8Z" style="fill:url(#linear-gradient-18);opacity:.5;mix-blend-mode:multiply"/><path class="cls-29" d="M13.57 71.85c0 7.82 1.15 14.17 2.55 14.17s2.55-6.35 2.55-14.17-1.14-14.16-2.55-14.16-2.55 6.31-2.55 14.16Z"/><g class="cls-30"><path class="cls-18" d="M17 87.91a1.21 1.21 0 0 0 .85-.54 4.16 4.16 0 0 0 .53-.91 12.7 12.7 0 0 0 .67-2 32.36 32.36 0 0 0 .75-4.16 66.28 66.28 0 0 0 .47-8.45 68.17 68.17 0 0 0-.47-8.45 32.68 32.68 0 0 0-.8-4.16 12.7 12.7 0 0 0-.67-2 4.16 4.16 0 0 0-.53-.91 1.25 1.25 0 0 0-.85-.54 1.28 1.28 0 0 1 .91.5 4.71 4.71 0 0 1 .57.9 12.14 12.14 0 0 1 .77 2 32.48 32.48 0 0 1 .87 4.17 61.79 61.79 0 0 1 .58 8.49 61.79 61.79 0 0 1-.58 8.49 33 33 0 0 1-.87 4.18 12 12 0 0 1-.77 2 4.42 4.42 0 0 1-.57.9 1.28 1.28 0 0 1-.86.49Z"/></g><path class="cls-29" d="M144 71.65c.08 15.06-6.5 27.35-14.7 27.35s-14.93-12.12-15-27.18 6.46-27.3 14.7-27.35 14.9 12.12 15 27.18Z" style="mask:url(#mask)"/><path class="cls-29" d="M29.7 71.65C29.79 86.71 23.21 99 15 99S.08 86.89 0 71.83s6.48-27.31 14.68-27.36S29.61 56.59 29.7 71.65Z" style="mask:url(#mask-2)"/><path class="cls-29" d="M114.13 68c.08 12.26-10.37 28.74-23.34 28.82s-23.53-16.28-23.6-28.54S77.56 46 90.53 46s23.53 9.75 23.6 22Z" style="mask:url(#mask-3)"/><path class="cls-29" d="M78.34 68C78.42 80.26 68 96.74 55 96.82S31.47 80.54 31.39 68.28 41.77 46 54.74 46s23.53 9.75 23.6 22Z" style="mask:url(#mask-4)"/></g></g></svg>