<svg version="1.0" xmlns="http://www.w3.org/2000/svg" width="933.333" height="933.333" viewBox="0 0 700 700"><path d="M334.8 149.5c-.2.1-5.7.6-12.3.9-6.6.4-13.3.9-15 1.1-1.6.2-8.4 1.1-15 2-9.4 1.3-27.2 4.6-37 7-9.5 2.2-29.8 8.5-31.2 9.7-.7.6-1.3.7-1.3.3 0-.4-.7-.2-1.5.5s-1.5.9-1.5.6c0-.4-1.2-.1-2.7.7-5.2 2.7-13.7 6.2-14.5 6-.4-.2-.8.2-.8.8 0 .5-.4.7-1 .4-.5-.3-1-.2-1 .2 0 .7-5.1 3.4-7.2 3.7-.4 0-1.6.8-2.5 1.6-1 .8-3.9 2.6-6.3 3.9-5.5 2.9-22.4 14.8-30.5 21.4-7.7 6.2-22.1 21-28 28.7-2.6 3.4-7.3 10.2-10.4 15.2l-5.8 9.1-6.4 1.9c-9.3 2.7-9.1 2.6-13.4 4.2-2.2.8-5 1.5-6.2 1.6-6.2.1-12.1 13.9-14.9 34.6-.3 2.7-.8 5.2-1 5.5-.6 1.1-1.8 26.5-1.8 38.9 0 36.8 5.6 68.4 13.2 75.4 2 1.7 21.8 9 27.4 10 3.3.6 4.2 1.5 7.7 7.4 10.9 18.6 28.8 38 49.6 53.8 12.1 9.1 36.4 22.5 52 28.5 19.1 7.5 46.9 15.6 59 17.4 2.3.3 5.2.8 6.5 1.1 2.8.6 19.1 2.9 27 3.9 7.1.8 30.9 1.9 42.5 1.9 12.8 0 41.4-1.2 42.4-1.8.3-.2 4-.7 8.1-1 4.1-.4 8.2-.9 9-1.1.8-.2 3.8-.6 6.5-1 11.7-1.4 33.2-6.4 50-11.6 53.5-16.6 98.2-49.3 120.9-88.6 3.3-5.8 4.7-7.3 7.1-7.8 1.7-.4 9.2-2.7 16.7-5.1 15.6-5.1 16.3-5.7 20.3-17.1 2-5.9 3-10.9 6-29.8 1.4-8.8 1.4-56.9 0-69.5-3.1-28.1-8.7-43.8-15.6-44-1.6 0-22.9-6.2-27.9-8.1-1.6-.6-3.9-3.5-6.5-8.1-5.8-10.5-17.3-25-28.1-35.5-31.9-31.2-76.6-52.7-130.4-62.7-12-2.2-15.7-2.8-25-4.1-1.4-.2-5.2-.6-8.5-.9-3.3-.3-8.9-.9-12.5-1.2-6.7-.6-47.6-1.4-48.2-.9z"/></svg>