<svg height="681.894" viewBox="0 0 808.841 681.894" width="808.841" xmlns="http://www.w3.org/2000/svg"><path d="M670.666 550.26 402.32 427.757l138.175-302.67L808.84 247.59z" fill="#f2f2f2"/><path d="m711.544 374.425-203.145-92.74a1.586 1.586 0 0 1 1.317-2.885l203.145 92.74a1.586 1.586 0 0 1-1.317 2.885zm11.296-24.745-203.145-92.739a1.586 1.586 0 1 1 1.318-2.885l203.144 92.74a1.586 1.586 0 1 1-1.317 2.885zm11.296-24.743-203.144-92.74a1.586 1.586 0 1 1 1.317-2.885l203.144 92.74a1.586 1.586 0 0 1-1.317 2.885zm11.296-24.745-203.144-92.739a1.586 1.586 0 1 1 1.317-2.885l203.145 92.739a1.586 1.586 0 0 1-1.318 2.885zm-44.097 96.595-203.145-92.74a1.586 1.586 0 1 1 1.318-2.885l203.144 92.74a1.586 1.586 0 0 1-1.317 2.885zm33.923-132.892-158.682-72.441a3.965 3.965 0 0 1-2.23-4.779 3.816 3.816 0 0 1 5.2-2.252l158.634 72.419a4 4 0 0 1 2.261 4.85 3.816 3.816 0 0 1-5.183 2.203z" fill="#fff"/><path d="m124.691 247.59 268.345-122.504 138.175 302.67-268.345 122.505z" fill="#f2f2f2"/><path d="m221.988 374.425 203.145-92.74a1.586 1.586 0 1 0-1.318-2.885l-203.144 92.74a1.586 1.586 0 1 0 1.317 2.885zm-11.296-24.745 203.144-92.739a1.586 1.586 0 0 0-1.317-2.885l-203.145 92.74a1.586 1.586 0 1 0 1.318 2.885zm-11.297-24.743 203.145-92.74a1.586 1.586 0 0 0-1.317-2.885l-203.145 92.74a1.586 1.586 0 0 0 1.317 2.885zM188.1 300.192l203.144-92.739a1.586 1.586 0 1 0-1.317-2.885l-203.145 92.739a1.586 1.586 0 0 0 1.317 2.885zm44.097 96.595 203.144-92.74a1.586 1.586 0 0 0-1.317-2.885l-203.145 92.74a1.586 1.586 0 1 0 1.318 2.885zm-33.923-132.892 158.682-72.441a3.965 3.965 0 0 0 2.23-4.779 3.816 3.816 0 0 0-5.2-2.252l-158.634 72.419a4 4 0 0 0-2.261 4.85 3.816 3.816 0 0 0 5.183 2.203z" fill="#fff"/><path d="M26.825 604.978c1.694-26.244 16.317-52.87 40.66-62.823a121.17 121.17 0 0 0 4.933 83.044c4.43 10.101 10.41 20.874 7.436 31.495-1.85 6.61-7.022 11.888-12.948 15.349-5.927 3.46-12.62 5.34-19.231 7.184l-1.253 1.168c-12.055-23.373-21.291-49.173-19.597-75.417z" fill="#f0f0f0"/><path d="M67.76 542.633a103.567 103.567 0 0 0-22.249 59.71 44.6 44.6 0 0 0 1.334 13.91 25.58 25.58 0 0 0 7.053 11.467c3.05 2.975 6.513 5.665 8.785 9.33a15.663 15.663 0 0 1 1.522 12.718c-1.501 5.294-4.814 9.733-8.205 13.961-3.765 4.695-7.75 9.511-9.112 15.52-.165.728-1.285.43-1.12-.298 2.37-10.453 12-16.883 16.208-26.422 1.964-4.45 2.598-9.52.246-13.956-2.056-3.88-5.625-6.656-8.738-9.642a27.296 27.296 0 0 1-7.315-10.955 41.231 41.231 0 0 1-1.863-13.808 100.479 100.479 0 0 1 5.517-30.915 105.403 105.403 0 0 1 17.12-31.443c.463-.583 1.277.243.818.823z" fill="#fff"/><path d="M45.407 595.322a15.538 15.538 0 0 1-12.77-15.548.58.58 0 0 1 1.159-.01 14.388 14.388 0 0 0 11.909 14.438c.734.13.433 1.249-.298 1.12zm6.747 31.093a29.949 29.949 0 0 0 12.329-18.01c.167-.728 1.287-.43 1.12.297a31.151 31.151 0 0 1-12.868 18.716c-.619.418-1.197-.587-.581-1.003zm2.68-63.51a8.795 8.795 0 0 0 8.295-.916c.613-.426 1.191.579.582 1.002a9.856 9.856 0 0 1-9.175 1.034.599.599 0 0 1-.411-.709.582.582 0 0 1 .709-.411z" fill="#fff"/><path d="M145.98 584.194c-.376.277-.752.554-1.127.841a115.831 115.831 0 0 0-14.1 12.42c-.342.343-.684.697-1.015 1.05a122.112 122.112 0 0 0-24.324 37.81 118.587 118.587 0 0 0-5.49 17.161c-1.92 8.081-3.361 16.996-7.712 23.771a20.346 20.346 0 0 1-1.467 2.047l-42.801 2.54c-.1-.044-.2-.077-.301-.12l-1.704.18c.05-.307.11-.624.16-.931.029-.178.067-.357.096-.535.022-.119.045-.238.058-.346l.022-.11c.014-.108.037-.208.051-.306q.489-2.66 1.017-5.323c0-.01 0-.01.008-.02 2.717-13.518 6.586-26.929 12.367-39.325.174-.373.347-.756.54-1.13a113.158 113.158 0 0 1 9.234-15.992 100.037 100.037 0 0 1 6.199-8.002 83.187 83.187 0 0 1 19.857-16.798c14.87-9.016 32.458-13.176 49.158-9.198.427.102.845.204 1.273.316z" fill="#f0f0f0"/><path d="M145.915 584.743a103.567 103.567 0 0 0-53.714 34.28 44.6 44.6 0 0 0-7.31 11.909 25.58 25.58 0 0 0-1.272 13.402c.643 4.211 1.788 8.444 1.397 12.739a15.663 15.663 0 0 1-6.443 11.07c-4.386 3.324-9.703 4.873-14.957 6.208-5.832 1.481-11.914 2.928-16.62 6.905-.57.482-1.284-.43-.714-.912 8.186-6.92 19.746-6.255 28.85-11.338 4.247-2.371 7.806-6.037 8.599-10.995.693-4.335-.485-8.701-1.173-12.96a27.296 27.296 0 0 1 .756-13.15 41.231 41.231 0 0 1 6.825-12.147 100.479 100.479 0 0 1 23.018-21.363 105.404 105.404 0 0 1 32.6-14.797c.72-.187.873.962.158 1.149z" fill="#fff"/><path d="M96.345 613.354a15.538 15.538 0 0 1-.836-20.103c.46-.586 1.393.102.932.69a14.388 14.388 0 0 0 .816 18.698c.508.545-.407 1.258-.913.715zm-13.334 28.888a29.949 29.949 0 0 0 20.688-6.958c.571-.48 1.286.433.715.913a31.151 31.151 0 0 1-21.542 7.195c-.746-.038-.603-1.189.14-1.15zm40.377-49.096a8.795 8.795 0 0 0 7.175 4.263c.747.029.603 1.18-.139 1.15a9.856 9.856 0 0 1-7.948-4.698.599.599 0 0 1 .099-.814.582.582 0 0 1 .813.099zm543.029-40.341H265.161V100.222h401.256z" fill="#fff"/><path d="M666.417 552.805H265.161V100.222h401.256zm-399.098-2.157H664.26V102.38H267.319z" fill="#cacaca"/><path d="M617.67 312.132H313.908a2.157 2.157 0 1 1 0-4.314H617.67a2.157 2.157 0 0 1 0 4.314zm0-37H313.908a2.157 2.157 0 1 1 0-4.314H617.67a2.157 2.157 0 0 1 0 4.314zm0-37H313.908a2.157 2.157 0 1 1 0-4.314H617.67a2.157 2.157 0 0 1 0 4.314zm0-37H313.908a2.157 2.157 0 1 1 0-4.314H617.67a2.157 2.157 0 0 1 0 4.314zm0 144.438H313.908a2.157 2.157 0 1 1 0-4.314H617.67a2.157 2.157 0 0 1 0 4.314zm0 166H313.908a2.157 2.157 0 1 1 0-4.314H617.67a2.157 2.157 0 0 1 0 4.314z" fill="#e4e4e4"/><path d="M544.905 476.94H386.674a3.993 3.993 0 0 1-3.99-3.989v-93.077a3.993 3.993 0 0 1 3.99-3.989h158.23a3.993 3.993 0 0 1 3.99 3.99v93.076a3.993 3.993 0 0 1-3.99 3.99z" fill="#fff"/><path d="M492.064 423.767a8.801 8.801 0 0 0-12.646-.226l-44.53 44.53a6.288 6.288 0 0 1-8.87.014l-6.594-6.582a8.78 8.78 0 0 0-12.42 0l-12.764 12.778h143.099v-1.821z" fill="#2ca8ff"/><path d="M544.905 476.94H386.674a3.993 3.993 0 0 1-3.99-3.989v-93.077a3.993 3.993 0 0 1 3.99-3.989h158.23a3.993 3.993 0 0 1 3.99 3.99v93.076a3.993 3.993 0 0 1-3.99 3.99zm-158.231-98.395a1.331 1.331 0 0 0-1.33 1.33v93.077a1.331 1.331 0 0 0 1.33 1.33h158.23a1.331 1.331 0 0 0 1.33-1.33v-93.078a1.331 1.331 0 0 0-1.33-1.33z" fill="#3f3d56"/><path d="M163.438 461.382a10.056 10.056 0 0 0-8.672-12.75l-8.29-34.76-12.708 13.542 9.821 30.932a10.11 10.11 0 0 0 19.849 3.036z" fill="#ffb6b6"/><path d="M141.276 448.775a4.505 4.505 0 0 1-2.708-2.476L120.99 403.3a46.373 46.373 0 0 1-1.648-32.602l11.264-35.283a14.497 14.497 0 1 1 28.873 2.642l-14.939 56.815 10.006 44.622a4.515 4.515 0 0 1-2.2 4.68l-7.417 4.237a4.506 4.506 0 0 1-2.623.575 4.455 4.455 0 0 1-1.029-.212z" fill="#e4e4e4"/><path d="M203.799 669.082h12.259l5.833-47.288h-18.095z" fill="#ffb6b6"/><path d="m200.671 665.08 24.144-.002h.001a15.387 15.387 0 0 1 15.387 15.387v.5l-39.531.001z" fill="#2f2e41"/><path d="M134.799 669.082h12.259l5.833-47.288h-18.095z" fill="#ffb6b6"/><path d="m131.671 665.08 24.144-.002h.001a15.387 15.387 0 0 1 15.387 15.387v.5l-39.531.001zm79.509-234.515-71.896-6.326s-7.103 45.326-6.103 63.326 2 46 2 46l-8 122 31-4 4-101 13-55 15 70 10 90 27-3-9-109s8-98-7-113z" fill="#2f2e41"/><circle cx="182.181" cy="277.565" fill="#ffb8b8" r="20"/><path d="m204.083 322.222-14.285-11.37s-15.469-11.937-24.543-3.112l-4.074 5.825s-23.098 8.657-23.098 19.657l1.098 60.343s-8 31 4 33l69.902 5.657-.902-57.657z" fill="#e4e4e4"/><path d="M166.68 295.065s-21-15-10-33c7.632-12.487 23.445-11.499 32.415-9.722a15.154 15.154 0 0 1 11.086 8.722c1.5 3.5 1.5 7-4.5 7-12 0-6 9-6 9s-8 2-6 9-17 9-17 9z" fill="#2f2e41"/><path d="M276.239 427.61a10.056 10.056 0 0 0-13.945-6.581l-24.792-25.736-4.072 18.118 24.168 21.661a10.11 10.11 0 0 0 18.641-7.462z" fill="#ffb6b6"/><path d="M250.745 428.001a4.505 4.505 0 0 1-3.59-.758l-36.977-28.117a46.373 46.373 0 0 1-17.974-27.25l-8.211-36.116a14.497 14.497 0 1 1 26.215-12.384l15.98 56.532 31.276 33.361a4.515 4.515 0 0 1 .48 5.149l-4.237 7.416a4.506 4.506 0 0 1-1.968 1.828 4.455 4.455 0 0 1-.994.34z" fill="#e4e4e4"/><path d="M758.656 30.177H181.1a.838.838 0 0 1 0-1.676h577.556a.838.838 0 0 1 0 1.676z" fill="#cacaca"/><circle cx="199.967" cy="9.221" fill="#3f3d56" r="9.221"/><circle cx="231.821" cy="9.221" fill="#3f3d56" r="9.221"/><circle cx="263.675" cy="9.221" fill="#3f3d56" r="9.221"/><path d="M739.57 5.64h-22.632a1.677 1.677 0 0 1 0-3.353h22.633a1.677 1.677 0 0 1 0 3.353zm0 6.287h-22.632a1.677 1.677 0 0 1 0-3.353h22.633a1.677 1.677 0 0 1 0 3.353zm0 6.287h-22.632a1.677 1.677 0 0 1 0-3.353h22.633a1.677 1.677 0 0 1 0 3.353z" fill="#3f3d56"/><path d="M382 681.222H1a1 1 0 1 1 0-2h381a1 1 0 0 1 0 2z" fill="#cacaca"/><path d="M584.576 161.965H347.299a5.393 5.393 0 0 1-5.459-4.654 5.19 5.19 0 0 1 5.163-5.724h237.204a5.442 5.442 0 0 1 5.538 4.724 5.19 5.19 0 0 1-5.17 5.654z" fill="#2ca8ff"/></svg>